<svg xmlns="http://www.w3.org/2000/svg" width="82" height="24"><path fill="#64748B" fill-rule="nonzero" d="M9.26 13.603a1.557 1.557 0 0 0-1.377.79 1.624 1.624 0 0 0 0 1.612c.285.497.811.8 1.376.79l10.07-.01V24l-10.722-.015C3.853 23.985 0 20.05 0 15.199c0-4.853 3.853-8.786 8.607-8.786l10.723-.015v7.214l-10.07-.009Zm62.67 0a1.557 1.557 0 0 0-1.377.79 1.624 1.624 0 0 0 0 1.612c.286.497.812.8 1.376.79L82 16.784V24l-10.723-.015c-4.753 0-8.606-3.934-8.606-8.786 0-4.853 3.853-8.786 8.606-8.786L82 6.398v7.214l-10.07-.009ZM53.453 23.985c4.753 0 8.607-3.934 8.607-8.786 0-4.852-3.854-8.786-8.607-8.786l-3.695-.015V0h-7.716v13.612l10.76-.009c.852.015 1.536.725 1.536 1.596 0 .87-.684 1.58-1.536 1.595l-10.072-.008-4.926-7.356c-3.188-4.956-7.897-2.885-8.477-1.997l-1.377-1.035h-7.027V24h8.404v-8.728c0-2.218 1.594-2.366 2.39-1.33L38.24 24l15.214-.015Z" opacity=".64"/></svg>