<svg xmlns="http://www.w3.org/2000/svg" width="89" height="25"><path fill="#64748B" fill-rule="evenodd" d="M16.621 6.127h-5.24l-3.07 7.314L5.24 6.127H0l5.71 13.6L3.6 24.75h5.24c2.62-6.24 5.178-12.422 7.781-18.623ZM83.248.04h5.64l-5.1 12.321H78.15L83.25.04Zm-3.713 13.51a3.18 3.18 0 1 1 0 6.358 3.18 3.18 0 0 1 0-6.358ZM68.448 5.758a7.15 7.15 0 1 1 0 14.298 7.15 7.15 0 0 1 0-14.298Zm0 4.357a2.792 2.792 0 1 1 0 5.584 2.792 2.792 0 0 1 0-5.584ZM53.099 5.758a7.15 7.15 0 1 1 0 14.298 7.15 7.15 0 0 1 0-14.298Zm0 4.357a2.792 2.792 0 1 1 0 5.584 2.792 2.792 0 0 1 0-5.584ZM31.992 0h4.728v7.35s.827-1.592 3.56-1.592c2.732 0 4.484 1.202 4.52 6.124v8.025h-4.728v-8.025a1.676 1.676 0 1 0-3.351.048v7.977h-4.729V0Zm-6.437 6.127h4.728v13.78h-4.728v-1.299c-1.059.909-2.378 1.448-3.809 1.448-3.486 0-6.313-3.2-6.313-7.149 0-3.948 2.827-7.15 6.313-7.15 1.431 0 2.75.54 3.81 1.449V6.128Zm-2.663 3.988a2.792 2.792 0 1 1 0 5.584 2.792 2.792 0 0 1 0-5.584Z" opacity=".64"/></svg>