<svg xmlns="http://www.w3.org/2000/svg" width="113" height="20"><path fill="#64748B" fill-rule="nonzero" d="M0 0h8.284c1.578 0 2.762.379 3.638 1.01.965.758 1.49 1.853 1.49 3.2 0 1.558-.657 2.526-1.972 3.116v.084c1.754.547 2.762 2.063 2.762 3.874 0 1.726-.702 3.073-1.841 3.915-.965.674-2.192.969-3.858.969H0V0Zm7.452 6.315c.876 0 1.534-.463 1.534-1.431 0-.926-.658-1.39-1.578-1.39h-2.85v2.78h2.894v.041Zm.394 6.274c1.008 0 1.753-.59 1.753-1.642 0-1.137-.789-1.642-1.753-1.642H4.602v3.326h3.244v-.042ZM14.946 0h4.34v16.21h-4.34V0Zm5.217 10.442c0-3.663 2.455-6.105 6.268-6.105 3.813 0 6.224 2.484 6.224 6.105 0 3.663-2.41 6.105-6.224 6.105-3.813 0-6.268-2.442-6.268-6.105Zm8.153 0c0-2.021-.658-3.284-1.973-3.284s-1.928 1.263-1.928 3.284c0 2.02.613 3.326 1.928 3.326 1.315-.042 1.973-1.305 1.973-3.326Zm4.821 0c0-3.663 2.455-6.105 6.268-6.105 3.814 0 6.18 2.442 6.18 6.105 0 3.663-2.41 6.105-6.223 6.105-3.77 0-6.225-2.442-6.225-6.105Zm8.153 0c0-2.021-.657-3.284-1.972-3.284s-1.929 1.263-1.929 3.284c0 2.02.614 3.326 1.929 3.326 1.315-.042 1.972-1.305 1.972-3.326Zm5.172-5.81h4.033v1.726h.088c.789-1.348 1.884-2.063 3.638-2.063 1.534 0 2.673.715 3.243 1.978h.088c.964-1.515 2.235-1.978 3.726-1.978 2.805 0 3.988 1.978 3.988 4.63v7.243H61.06V9.642c0-1.18-.395-1.937-1.447-1.937s-1.578.926-1.578 2.19v6.273h-4.208V9.642c0-1.18-.394-1.937-1.446-1.937s-1.578.926-1.578 2.19v6.273h-4.34V4.63Zm24.108 10.02h-.044v1.516h-4.032V0h4.208v5.81h.087c.79-1.01 1.885-1.558 3.42-1.558 3.024 0 4.777 2.61 4.777 6.105 0 3.916-1.885 6.19-5.04 6.19-1.316 0-2.674-.59-3.376-1.895Zm4.077-4.337c0-1.852-.702-3.073-1.973-3.073-1.315 0-2.104 1.22-2.104 3.073s.833 3.074 2.104 3.074c1.271 0 1.973-1.18 1.973-3.074Zm4.821.084c0-3.62 2.499-6.104 6.093-6.104 1.797 0 3.156.547 4.208 1.515 1.402 1.305 2.016 3.326 1.972 5.684h-8.065c.175 1.432.877 2.19 2.148 2.19.745 0 1.403-.337 1.666-1.095h4.076c-.701 2.652-2.85 3.958-5.874 3.958-3.725-.043-6.224-2.485-6.224-6.148Zm4.208-1.22h3.857c-.087-1.39-.876-2.106-1.884-2.106-1.184-.042-1.841.758-1.973 2.105ZM96.52 6.61h.088c.876-1.6 2.016-2.231 3.462-2.231.351 0 .57.042.702.126v3.537h-.088c-2.498-.421-3.945.715-3.945 3.326v4.842h-4.252V4.63h4.033v1.98Zm4.69 9.6h4.076c.176.505.702.968 1.71.968 1.359 0 1.84-.8 1.84-2.02v-.843h-.087c-.657.758-1.578 1.305-2.893 1.305-2.586 0-4.865-1.852-4.865-5.473 0-3.326 1.84-5.895 4.646-5.895 1.622 0 2.586.632 3.244 1.6h.087V4.59H113v10.02c0 1.853-.657 3.285-1.666 4.127-1.052.884-2.542 1.263-4.251 1.263-3.244.042-5.48-1.221-5.874-3.79Zm7.802-6.232c0-1.431-.701-2.61-1.928-2.61-1.184 0-1.929 1.01-1.929 2.61 0 1.558.745 2.653 1.929 2.653 1.183 0 1.928-1.137 1.928-2.653Z" opacity=".64"/></svg>