<svg xmlns="http://www.w3.org/2000/svg" width="97" height="38"><path fill="#64748B" fill-rule="nonzero" d="M0 0h97v38H0V0Zm56.778 13.4c-1.22 0-2.178.264-3.137.791 0-2.816 0-5.368.088-6.248l-5.84 1.055v.529l.61.088c.784.175 1.047.615 1.22 1.672.175 2.113.087 13.38 0 15.228 1.568.353 3.224.617 4.88.617 4.619 0 7.407-2.905 7.407-7.483 0-3.608-2.265-6.25-5.228-6.25Zm-2.005 12.763c-.348 0-.785 0-1.045-.087-.088-1.233-.174-6.427-.088-11.004.523-.176.871-.264 1.308-.264 1.918 0 2.964 2.289 2.964 5.105-.001 3.522-1.308 6.25-3.139 6.25ZM25.93 8.294H10.592v.792l.871.088c1.133.176 1.569.88 1.743 2.553.262 3.169.174 8.89 0 11.618-.175 1.673-.61 2.466-1.743 2.553l-.871.177v.704h9.847v-.704l-1.046-.177c-1.133-.088-1.568-.88-1.742-2.553a72.375 72.375 0 0 1-.175-5.281l2.091.088c1.308 0 1.917 1.056 2.179 2.552h.784v-6.248h-.784c-.262 1.497-.871 2.553-2.179 2.553l-2.09.088c0-2.993.087-5.81.174-7.482h3.05c2.353 0 3.573 1.496 4.444 4.137l.872-.264-.088-5.194Zm4.967 4.93c-4.357 0-6.797 3.169-6.797 6.954 0 3.96 2.179 6.954 6.536 6.954 4.357 0 6.797-3.17 6.797-6.954 0-3.961-2.178-6.954-6.536-6.954Zm-.261.88c1.83 0 2.701 2.729 2.701 6.074 0 3.432-.524 6.073-2.527 6.073-1.743 0-2.614-2.729-2.614-6.073 0-3.433.522-6.074 2.44-6.074Zm32.504 6.162c0 4.05 2.788 6.866 6.71 6.866 2.44 0 4.356-1.233 5.228-2.465l-.348-.44c-.872.617-1.57.968-2.964.968-3.137 0-4.706-2.377-4.618-5.634h8.104c0-3.608-1.744-6.337-5.402-6.337-4.445 0-6.71 3.433-6.71 7.042Zm4.008-1.672c.086-2.026.872-4.49 2.353-4.49 1.48 0 1.742 2.64 1.742 4.401l-4.095.089Zm18.476-4.666c-1.046-.44-2.44-.704-4.009-.704-3.223 0-5.229 1.936-5.229 4.225 0 2.289 1.48 3.257 3.574 3.961 2.178.792 2.789 1.408 2.789 2.465 0 1.056-.785 2.024-2.18 2.024-1.654 0-2.875-.968-3.833-3.61l-.61.178.087 3.872c1.046.44 2.962.793 4.618.793 3.4 0 5.578-1.761 5.578-4.49 0-1.848-.959-2.904-3.225-3.785-2.44-.968-3.31-1.584-3.31-2.729 0-1.144.785-1.937 1.83-1.937 1.568 0 2.614.969 3.4 3.346l.609-.176-.09-3.433Zm-36.863-.352c-1.48-.88-4.095-.44-5.49 2.73l.087-3.082-5.838 1.144v.529l.61.087c.785.089 1.133.529 1.22 1.673.175 2.113.088 5.81 0 7.659-.087 1.055-.435 1.583-1.22 1.672l-.61.088v.704h8.104v-.704l-1.045-.088c-.871-.089-1.133-.617-1.22-1.672-.175-1.673-.175-5.018-.087-7.13.435-.617 2.352-1.145 4.095 0l1.394-3.61Z" opacity=".64"/></svg>